<svg width="162" height="29" viewBox="0 0 162 29" fill="none" xmlns="http://www.w3.org/2000/svg">
<g clip-path="url(#clip0_252_76)">
<path d="M47.3719 20.0689H41.9421L41.2032 21.7614H36.9821L43.7368 7.07715H45.5612L52.3273 21.7614H48.1039L47.3719 20.0689ZM46.145 17.2526L44.6581 13.8153L43.1599 17.2526H46.145Z" fill="white"/>
<path d="M64.5779 18.1443V21.7614H55.1528V7.25684H59.0113V18.1443H64.5779Z" fill="white"/>
<path d="M82.3061 14.8412C82.3061 19.2499 78.9675 22.1026 74.8376 22.1026C70.2197 22.1026 66.7283 18.6653 66.7283 14.5273C66.7283 10.3893 70.2288 6.90649 74.7373 6.90649C76.5868 6.93379 78.7258 7.71635 79.9253 8.82193L77.7863 11.7474C76.9555 10.9767 75.8714 10.5351 74.7373 10.5053C73.6677 10.5094 72.6423 10.9321 71.8819 11.6826C71.1215 12.433 70.6868 13.4513 70.6713 14.5182C70.6713 16.5519 72.3041 18.5311 74.9904 18.5311C76.7487 18.5311 78.0029 17.6848 78.0576 16.2994H74.7282V13.4217H82.1875C82.2624 13.8913 82.3021 14.3658 82.3061 14.8412Z" fill="white"/>
<path d="M84.9355 14.5273C84.9355 10.1709 88.3995 6.87012 92.9171 6.87012C97.4347 6.87012 100.899 10.1709 100.899 14.5273C100.899 18.8496 97.437 22.1299 92.9171 22.1299C88.3972 22.1299 84.9355 18.845 84.9355 14.5273ZM96.9945 14.5C96.9945 12.2593 95.2249 10.5327 92.9171 10.5327C90.6093 10.5327 88.8397 12.2593 88.8397 14.5C88.8397 16.7408 90.607 18.4492 92.9171 18.4492C95.2272 18.4492 96.9945 16.7317 96.9945 14.5Z" fill="white"/>
<path d="M111.927 21.7614L108.039 15.4691V21.7614H104.178L104.16 7.25684H109.69C112.828 7.25684 115.074 9.37019 115.074 11.9704C115.077 12.8014 114.843 13.6161 114.398 14.3191C113.954 15.0221 113.318 15.5843 112.565 15.94L116.463 21.7614H111.927ZM108.021 13.6265H109.599C110.42 13.6265 111.168 13.06 111.168 12.1683C111.168 11.2765 110.41 10.7124 109.599 10.7124H108.021V13.6265Z" fill="white"/>
<path d="M121.176 7.25684H125.037V21.7614H121.176V7.25684Z" fill="white"/>
<path d="M140.864 10.8557H137.381V21.7614H133.505V10.8557H130.022V7.25684H140.864V10.8557Z" fill="white"/>
<path d="M161.433 7.12256V21.7613H157.579V16.0105L153.659 21.5179H153.632L149.71 16.0105V21.7613H145.849V7.12256H147.399L153.641 15.651L159.883 7.12256H161.433Z" fill="white"/>
<path d="M24.7406 18.0829L21.3086 25.7219L17.2608 28.9477V24.2956L22.2299 13.5673L14.6861 0L5.03752 19.052L9.91769 19.1066L14.6861 10.0435L16.7294 13.4422L11.4319 24.2956H2.38079L0 29H17.1946H17.2608H30.8112L24.7406 18.0829Z" fill="white"/>
<path d="M17.6439 26.2747V28.1469L19.0965 27.0094C19.0965 27.0094 18.084 27.0709 17.6439 26.2747Z" fill="white"/>
<path d="M18.4055 24.4252L18.5675 24.498C18.6286 24.5274 18.6949 24.5442 18.7627 24.5477C18.8304 24.5511 18.8981 24.5409 18.9619 24.5178C19.0256 24.4947 19.0841 24.4591 19.1339 24.4131C19.1836 24.3671 19.2236 24.3117 19.2516 24.25L23.3336 15.469L22.6175 14.1792L18.1593 23.7496C18.103 23.8719 18.0974 24.0113 18.1435 24.1378C18.1896 24.2642 18.2837 24.3675 18.4055 24.4252Z" fill="white"/>
<path d="M19.9517 25.3215L20.1113 25.3966C20.1724 25.426 20.2388 25.4428 20.3065 25.4462C20.3743 25.4496 20.442 25.4395 20.5058 25.4164C20.5695 25.3933 20.628 25.3577 20.6777 25.3117C20.7275 25.2657 20.7675 25.2103 20.7955 25.1486L24.4009 17.389L23.6825 16.0969L19.7031 24.6481C19.6751 24.7086 19.6593 24.774 19.6566 24.8406C19.654 24.9072 19.6645 24.9737 19.6876 25.0362C19.7106 25.0987 19.7459 25.1561 19.7912 25.2051C19.8365 25.254 19.891 25.2936 19.9517 25.3215Z" fill="white"/>
</g>
<defs>
<clipPath id="clip0_252_76">
<rect width="161.433" height="29" fill="white"/>
</clipPath>
</defs>
</svg>
